# ProBuilder 4.5.2
# https://unity3d.com/unity/features/worldbuilding/probuilder
# 3/24/2022 2:33:16 PM

mtllib ./Pipe.mtl
o Pipe

g Pipe (0)
v -1 -0.05 1.732051
v -2 -0.05 -1.192093E-07
v -1 0 1.732051
v -2 0 -1.192093E-07
v -1.8 -0.05 -1.192093E-07
v -0.8999999 -0.05 1.558846
v -1.8 0 -1.192093E-07
v -0.8999999 0 1.558846
v 1 -0.05 1.732051
v 1 0 1.732051
v 0.9000001 -0.05 1.558846
v 0.9000001 0 1.558846
v 2 -0.05 -2.384186E-07
v 2 0 -2.384186E-07
v 1.8 -0.05 -2.384186E-07
v 1.8 0 -2.384186E-07
v 0.9999998 -0.05 -1.732051
v 0.9999998 0 -1.732051
v 0.8999999 -0.05 -1.558846
v 0.8999999 0 -1.558846
v -0.9999998 -0.05 -1.732051
v -0.9999998 0 -1.732051
v -0.8999999 -0.05 -1.558846
v -0.8999999 0 -1.558846
v -1 0.05 1.732051
v -2 0.05 -1.192093E-07
v -1.8 0.05 -1.192093E-07
v -0.8999999 0.05 1.558846
v 1 0.05 1.732051
v 0.9000001 0.05 1.558846
v 2 0.05 -2.384186E-07
v 1.8 0.05 -2.384186E-07
v 0.9999998 0.05 -1.732051
v 0.8999999 0.05 -1.558846
v -0.9999998 0.05 -1.732051
v -0.8999999 0.05 -1.558846

vt 2 0
vt 0 0
vt 2 0.05
vt 0 0.05
vt -0.1 0
vt -1.9 0
vt -0.1 0.05
vt -1.9 0.05
vt 3 0
vt 0.9999999 0
vt 3 0.05
vt 0.9999999 0.05
vt -1.1 0
vt -2.9 0
vt -1.1 0.05
vt -2.9 0.05
vt -0.09999997 0
vt -1.9 0
vt -0.09999997 0.05
vt -1.9 0.05
vt -2 0
vt -2 0.05
vt 1.9 0
vt 0.1000001 0
vt 1.9 0.05
vt 0.1000001 0.05
vt -1 0
vt -3 0
vt -1 0.05
vt -3 0.05
vt 2.9 0
vt 1.1 0
vt 2.9 0.05
vt 1.1 0.05
vt 2 0.1
vt 0 0.1
vt -0.1 0.1
vt -1.9 0.1
vt 3 0.1
vt 0.9999999 0.1
vt -1.1 0.1
vt -2.9 0.1
vt -0.09999997 0.1
vt -1.9 0.1
vt -2 0.1
vt 1.9 0.1
vt 0.1000001 0.1
vt -1 0.1
vt -3 0.1
vt 2.9 0.1
vt 1.1 0.1
vt 1 1.732051
vt 0.2 0
vt 1.1 1.558846
vt -1 1.732051
vt -1.1 1.558846
vt -0.2 0
vt 3 1.732051
vt 2.9 1.558846
vt -3 1.732051
vt -2.9 1.558846
vt 4 -1.748456E-07
vt 3.8 -1.57361E-07
vt -4 -1.748456E-07
vt -3.8 -1.57361E-07
vt 3 -1.732051
vt 2.9 -1.558846
vt -3 -1.732051
vt -2.9 -1.558846
vt 1 -1.732051
vt 1.1 -1.558846
vt -1 -1.732051
vt -1.1 -1.558846

vn -0.3273268 -0.755929 0.5669467
vn -0.6546537 -0.755929 -5.63211E-08
vn -0.5 0 0.8660254
vn -1 0 -8.60319E-08
vn 0.6546537 -0.755929 -2.252844E-08
vn 0.3273268 -0.755929 -0.5669467
vn 1 0 -3.441276E-08
vn 0.4999999 0 -0.8660254
vn 0.3273269 -0.755929 0.5669467
vn 0.5000001 0 0.8660254
vn -0.3273269 -0.755929 -0.5669467
vn -0.5000001 0 -0.8660254
vn -0.5 0 0.8660254
vn -0.3273268 0.755929 0.5669467
vn -0.6546537 0.755929 -5.63211E-08
vn 0.6546537 0.755929 -2.252844E-08
vn 0.3273268 0.755929 -0.5669467
vn 0.3273269 0.755929 0.5669467
vn -0.3273269 0.755929 -0.5669467

usemtl Coral
f 3/3/3 4/4/4 2/2/2 1/1/1
f 7/7/7 8/8/8 6/6/6 5/5/5
f 10/11/10 3/12/3 1/10/1 9/9/9
f 8/15/8 12/16/12 11/14/11 6/13/6
f 14/3/7 10/4/10 9/2/9 13/1/5
f 12/19/12 16/20/4 15/18/2 11/17/11
f 18/4/8 14/22/7 13/21/5 17/2/6
f 16/25/4 20/26/13 19/24/1 15/23/2
f 22/29/12 18/30/8 17/28/6 21/27/11
f 20/33/13 24/34/10 23/32/9 19/31/1
f 4/4/4 22/22/12 21/21/11 2/2/2
f 24/25/10 7/26/7 5/24/5 23/23/9
f 25/35/14 26/36/15 4/4/4 3/3/3
f 27/37/16 28/38/17 8/8/8 7/7/7
f 29/39/18 25/40/14 3/12/3 10/11/10
f 28/41/17 30/42/19 12/16/12 8/15/8
f 31/35/16 29/36/18 10/4/10 14/3/7
f 30/43/19 32/44/15 16/20/4 12/19/12
f 33/36/17 31/45/16 14/22/7 18/4/8
f 32/46/15 34/47/14 20/26/13 16/25/4
f 35/48/19 33/49/17 18/30/8 22/29/12
f 34/50/14 36/51/18 24/34/10 20/33/13
f 26/36/15 35/45/19 22/22/12 4/4/4
f 36/46/18 27/47/16 7/26/7 24/25/10
f 5/53/5 6/54/6 1/52/1 2/2/2
f 28/56/17 27/57/16 26/2/15 25/55/14
f 6/54/6 11/59/11 9/58/9 1/52/1
f 30/61/19 28/56/17 25/55/14 29/60/18
f 11/59/11 15/63/2 13/62/5 9/58/9
f 32/65/15 30/61/19 29/60/18 31/64/16
f 15/63/2 19/67/1 17/66/6 13/62/5
f 34/69/14 32/65/15 31/64/16 33/68/17
f 19/67/1 23/71/9 21/70/11 17/66/6
f 36/73/18 34/69/14 33/68/17 35/72/19
f 23/71/9 5/53/5 2/2/2 21/70/11
f 27/57/16 36/73/18 35/72/19 26/2/15

